<svg width="2110" height="390" viewBox="0 0 2110 390" fill="none" xmlns="http://www.w3.org/2000/svg">
<g clip-path="url(#clip0_16_2)">
<path d="M518.742 258.387C495.861 258.387 477.242 239.774 477.235 216.893C477.242 193.986 495.861 175.367 518.742 175.367C541.629 175.367 560.255 193.986 560.255 216.874C560.255 239.767 541.629 258.387 518.742 258.387ZM518.742 145.48C508.867 145.48 499.247 147.506 490.149 151.506L477.235 157.179V143.069V102.215L477.203 100.346C477.092 92.2162 470.399 85.6088 462.289 85.6088C454.178 85.6088 447.486 92.2162 447.375 100.346L447.349 102.699V160.799V271.68L447.375 273.529C447.427 277.366 448.911 280.967 451.544 283.699C451.695 283.823 451.832 283.947 451.969 284.084C452.59 284.679 453.178 285.176 453.747 285.581C454.106 285.764 454.413 285.927 454.708 286.104H454.714L454.91 286.221C455.511 286.581 456.139 286.953 456.505 287.117C456.622 287.149 456.832 287.195 457.034 287.254C457.361 287.345 457.688 287.437 458.008 287.528C458.361 287.639 458.72 287.757 459.073 287.881L459.472 288.012C460.269 288.169 461.276 288.273 462.289 288.273C463.06 288.273 463.903 288.182 464.942 287.992L465.413 287.907C466.177 287.744 466.903 287.515 467.622 287.234C467.981 287.091 468.269 286.96 468.563 286.823C468.955 286.633 469.386 286.391 469.811 286.136C470.38 285.796 470.896 285.444 471.438 285.012L471.811 284.705C472.647 283.999 473.34 283.28 473.968 282.49L478.712 276.451L485.503 280.039C495.868 285.502 507.05 288.273 518.742 288.273C558.112 288.273 590.142 256.243 590.142 216.874C590.142 177.51 558.112 145.48 518.742 145.48Z" fill="#FFFFFF"/>
<path d="M1087.96 216.88V160.427C1087.96 152.186 1081.25 145.487 1073.02 145.487C1064.78 145.487 1058.07 152.186 1058.07 160.427V216.874C1058.07 239.774 1039.45 258.394 1016.56 258.394C993.68 258.394 975.06 239.774 975.054 216.887V160.427C975.054 152.186 968.348 145.487 960.114 145.487C951.872 145.487 945.167 152.186 945.167 160.427V216.88C945.167 245.212 961.963 270.883 987.961 282.274C997.059 286.254 1006.67 288.274 1016.56 288.274C1026.45 288.274 1036.07 286.254 1045.17 282.274C1049.78 280.248 1054.09 277.758 1058.07 274.909V281.66C1058.07 304.56 1039.45 323.18 1016.57 323.18C1004.12 323.18 992.961 317.644 985.347 308.939C985.347 308.939 984.151 307.423 983.772 306.9C983.393 306.377 982.511 305.037 982.511 305.037C978.334 297.933 969.152 295.561 962.055 299.744C954.957 303.926 952.578 313.102 956.761 320.2L958.205 322.67L958.199 322.677C965.558 333.153 975.727 341.701 987.961 347.06C997.059 351.047 1006.67 353.066 1016.57 353.066C1026.45 353.066 1036.07 351.047 1045.17 347.06C1071.16 335.669 1087.96 310.004 1087.96 281.667V225.213C1087.96 224.351 1087.84 223.52 1087.71 222.697C1087.86 220.769 1087.96 218.835 1087.96 216.88Z" fill="#FFFFFF"/>
<path d="M1788.79 145.49C1780.55 145.49 1773.85 152.195 1773.85 160.43V216.877C1773.84 239.777 1755.22 258.397 1732.34 258.397C1709.45 258.397 1690.83 239.777 1690.82 216.89V160.43C1690.82 152.195 1684.13 145.49 1675.89 145.49C1667.64 145.49 1660.94 152.195 1660.94 160.43V216.883C1660.94 245.221 1677.74 270.886 1703.74 282.277C1712.83 286.264 1722.46 288.283 1732.34 288.283C1742.22 288.283 1751.85 286.264 1760.94 282.277C1786.93 270.886 1803.73 245.221 1803.73 216.883V160.43C1803.73 152.195 1797.03 145.49 1788.79 145.49Z" fill="#FFFFFF"/>
<path d="M848.028 258.387C825.141 258.387 806.515 239.767 806.515 216.874C806.515 193.986 825.141 175.367 848.028 175.367C870.908 175.367 889.528 193.986 889.535 216.893C889.528 239.774 870.908 258.387 848.028 258.387ZM904.481 85.6088C896.371 85.6088 889.678 92.2162 889.567 100.346L889.535 102.215V143.069V157.179L876.62 151.506C867.523 147.506 857.903 145.48 848.028 145.48C808.658 145.48 776.628 177.51 776.628 216.874C776.628 256.243 808.658 288.273 848.028 288.273C859.72 288.273 870.902 285.502 881.267 280.039L888.058 276.451L892.802 282.49C893.43 283.28 894.122 283.999 894.959 284.705L895.332 285.012C895.874 285.444 896.39 285.796 896.959 286.136C897.384 286.391 897.815 286.633 898.207 286.823C898.501 286.96 898.789 287.091 899.148 287.234C899.867 287.515 900.593 287.744 901.357 287.907L901.828 287.992C902.867 288.182 903.71 288.273 904.481 288.273C905.494 288.273 906.501 288.169 907.298 288.012L907.697 287.881C908.05 287.757 908.409 287.639 908.762 287.528C909.082 287.437 909.409 287.345 909.736 287.254C909.938 287.195 910.147 287.149 910.265 287.117C910.631 286.953 911.258 286.581 911.86 286.221L912.056 286.104C912.35 285.927 912.664 285.764 913.023 285.581C913.592 285.176 914.18 284.679 914.801 284.084C914.938 283.947 915.075 283.823 915.219 283.699C917.859 280.967 919.343 277.366 919.395 273.529L919.421 271.68V160.799V102.699L919.395 100.346C919.284 92.2162 912.592 85.6088 904.481 85.6088Z" fill="#FFFFFF"/>
<path d="M1349.67 163.606C1335.89 149.829 1317.54 142.242 1298 142.242C1278.46 142.242 1260.12 149.829 1246.33 163.606C1236.75 173.207 1230.03 185.343 1226.95 198.702C1224.45 209.531 1224.45 220.988 1226.95 231.836C1230.04 245.208 1236.75 257.344 1246.33 266.938C1257.25 277.84 1271.1 284.885 1286.4 287.296L1288.42 287.59C1289.93 287.793 1291.58 287.95 1293.24 288.054C1294.29 288.126 1295.29 288.179 1296.31 288.205C1296.66 288.211 1297.05 288.237 1297.44 288.257L1297.79 288.283L1298 288.257C1298.23 288.231 1298.47 288.211 1298.94 288.192C1314.51 288.041 1329.33 283.048 1341.78 273.755C1344.9 271.422 1346.92 268.036 1347.48 264.193C1348.03 260.357 1347.06 256.534 1344.74 253.417C1342.42 250.306 1339.03 248.28 1335.19 247.724C1331.36 247.169 1327.48 248.162 1324.39 250.489C1316.84 256.083 1307.52 259.168 1298.14 259.168C1297.25 259.168 1296.37 259.142 1295.51 259.089L1294.79 259.044C1292.64 258.861 1290.81 258.606 1288.74 258.161C1284.61 257.259 1280.65 255.782 1276.96 253.743C1274 252.109 1271.21 250.103 1268.65 247.783L1267.11 246.371L1266.61 246.822L1262.04 240.444C1260.32 237.967 1259.04 235.758 1258.01 233.503C1252.74 221.922 1252.74 208.629 1258.01 197.035C1260.22 192.166 1263.21 187.833 1266.89 184.16C1275.19 175.854 1286.24 171.285 1298 171.285C1312.35 171.285 1325.77 178.233 1333.92 189.866L1341.53 200.734L1298.01 200.741C1294.12 200.741 1290.47 202.25 1287.72 204.995C1285 207.734 1283.49 211.387 1283.49 215.269C1283.49 219.151 1285 222.804 1287.73 225.549C1290.48 228.281 1294.13 229.797 1298 229.797H1355.31C1355.31 229.797 1376.25 232.091 1369.06 198.715C1365.97 185.343 1359.27 173.2 1349.67 163.606Z" fill="#FFFFFF"/>
<path d="M2108.42 198.715C2105.33 185.343 2098.62 173.2 2089.03 163.606C2075.25 149.829 2056.89 142.242 2037.36 142.242C2017.82 142.242 1999.48 149.829 1985.7 163.606C1976.11 173.207 1969.4 185.343 1966.31 198.702C1963.8 209.531 1963.8 220.988 1966.3 231.83C1969.4 245.208 1976.11 257.344 1985.7 266.932C1996.61 277.84 2010.46 284.885 2025.76 287.296L2027.77 287.59C2029.3 287.793 2030.95 287.95 2032.6 288.054C2033.65 288.126 2034.65 288.172 2035.66 288.205C2036.02 288.211 2036.4 288.231 2036.79 288.257L2037.15 288.283L2037.35 288.257C2037.59 288.231 2037.81 288.211 2038.3 288.192C2053.87 288.041 2068.68 283.048 2081.14 273.748C2084.26 271.422 2086.27 268.03 2086.83 264.193C2087.39 260.357 2086.43 256.527 2084.09 253.417C2081.78 250.306 2078.38 248.28 2074.54 247.724C2070.71 247.169 2066.84 248.155 2063.74 250.489C2056.2 256.083 2046.87 259.161 2037.49 259.161C2036.61 259.161 2035.72 259.142 2034.87 259.089L2034.15 259.03C2032 258.861 2030.17 258.606 2028.09 258.161C2023.97 257.259 2020.02 255.769 2016.32 253.743C2013.35 252.109 2010.55 250.103 2008.01 247.783L2006.46 246.371L2005.96 246.822L2001.4 240.437C1999.67 237.967 1998.39 235.758 1997.37 233.496C1992.09 221.916 1992.09 208.629 1997.37 197.035C1999.58 192.166 2002.57 187.833 2006.24 184.154C2014.55 175.854 2025.59 171.285 2037.36 171.285C2051.7 171.285 2065.13 178.233 2073.27 189.866L2080.88 200.734L2037.37 200.741C2033.47 200.741 2029.83 202.25 2027.09 204.995C2024.36 207.734 2022.84 211.38 2022.84 215.269C2022.84 219.151 2024.36 222.804 2027.1 225.543C2029.84 228.281 2033.48 229.797 2037.36 229.797H2094.67C2094.67 229.797 2115.62 232.091 2108.42 198.715Z" fill="#FFFFFF"/>
<path d="M1464.22 172.571C1472.44 172.597 1480.24 174.878 1486.96 179.113L1487.21 178.865L1490.23 181.401C1491.19 182.126 1492.11 182.904 1493 183.721L1494.02 184.564C1496.01 186.276 1499.34 188.315 1503.85 188.328C1507.95 188.328 1511.74 186.76 1514.59 183.917C1517.42 181.074 1518.98 177.296 1518.97 173.27C1518.96 169.597 1517.78 166.147 1515.63 163.506C1501.84 149.86 1483.59 142.312 1464.21 142.24H1463.95C1427.7 142.24 1397.55 168.225 1392.26 204.02C1391.65 208.144 1391.38 211.581 1391.39 214.842C1391.39 218.104 1391.69 221.541 1392.31 225.672C1394.67 241.278 1401.78 255.395 1412.89 266.499C1426.73 280.328 1445.09 287.987 1464.61 288.053H1464.86C1482.03 288.053 1498.11 282.164 1511.36 271.028L1511.74 270.695L1512.18 270.407C1516.42 267.551 1518.97 262.793 1518.97 257.689C1518.97 249.252 1512.1 242.383 1503.67 242.383C1499.5 242.383 1495.62 243.991 1492.74 246.905L1492.46 247.186L1492.16 247.441C1484.45 254.068 1474.66 257.722 1464.59 257.722C1453.09 257.682 1442.39 253.219 1434.33 245.161C1430.24 241.069 1427.06 236.246 1424.87 230.835C1422.84 225.763 1421.8 220.456 1421.79 215.052C1421.78 209.647 1422.8 204.333 1424.82 199.262C1431.3 183.047 1446.77 172.571 1464.22 172.571Z" fill="#FFFFFF"/>
<path d="M1899.3 142.242H1899.04C1882.83 142.242 1867.85 147.464 1855.77 156.411C1854 150.13 1848.26 145.49 1841.43 145.49C1833.32 145.49 1826.71 151.973 1826.49 160.018C1826.5 160.227 1826.51 160.437 1826.51 160.652L1826.5 214.38C1826.5 214.531 1826.48 214.694 1826.48 214.844C1826.48 214.975 1826.49 215.119 1826.5 215.256L1826.48 271.67L1826.51 273.539C1826.62 281.669 1833.31 288.283 1841.43 288.283C1849.54 288.283 1856.23 281.669 1856.34 273.539L1856.37 271.173L1856.35 214.903C1856.4 209.596 1857.93 204.237 1859.91 199.264C1866.4 183.049 1881.87 172.573 1899.32 172.573C1907.53 172.599 1915.33 174.88 1922.05 179.115L1922.3 178.86L1925.32 181.396C1926.28 182.128 1927.2 182.905 1928.09 183.716L1929.11 184.565C1931.1 186.278 1934.44 188.317 1938.94 188.33C1943.05 188.33 1946.84 186.761 1949.69 183.918C1952.51 181.075 1954.08 177.298 1954.06 173.272C1954.06 169.599 1952.87 166.149 1950.73 163.508C1936.93 149.862 1918.68 142.307 1899.3 142.242Z" fill="#FFFFFF"/>
<path d="M684.46 255.18C661.573 255.18 642.947 236.56 642.947 213.666C642.947 190.779 661.573 172.16 684.46 172.16C707.348 172.16 725.974 190.779 725.974 213.666C725.974 236.56 707.348 255.18 684.46 255.18ZM684.46 142.273C645.091 142.273 613.061 174.303 613.061 213.666C613.061 253.036 645.091 285.066 684.46 285.066C723.83 285.066 755.854 253.036 755.854 213.666C755.854 174.303 723.83 142.273 684.46 142.273Z" fill="#FFFFFF"/>
<path d="M1197.03 145.496C1196.83 145.516 1196.62 145.523 1196.41 145.529L1173.54 145.516V110.146H1173.42L1173.5 100.813L1173.51 100.186L1173.53 100.036C1173.26 92.0364 1166.67 85.612 1158.59 85.612C1150.5 85.612 1143.88 92.0887 1143.66 100.14C1143.67 100.349 1143.69 100.559 1143.69 100.774L1143.85 110.146H1143.65V145.503L1122.23 145.49L1120.37 145.523C1112.24 145.634 1105.62 152.319 1105.62 160.437C1105.62 168.547 1112.24 175.239 1120.37 175.344L1122.73 175.377L1143.65 175.364V271.67L1143.69 273.539C1143.8 281.669 1150.48 288.283 1158.59 288.283C1166.71 288.283 1173.4 281.669 1173.51 273.539L1173.54 271.173V175.35L1196.37 175.337L1197 175.35L1197.15 175.37C1205.14 175.096 1211.57 168.501 1211.57 160.437C1211.57 152.333 1205.09 145.719 1197.03 145.496Z" fill="#FFFFFF"/>
<path d="M1627.69 145.496C1627.48 145.516 1627.28 145.523 1627.06 145.529L1604.2 145.516V110.146H1604.07L1604.16 100.813V100.186L1604.18 100.036C1603.91 92.0364 1597.33 85.612 1589.25 85.612C1581.15 85.612 1574.53 92.0887 1574.32 100.14C1574.33 100.349 1574.34 100.559 1574.34 100.774L1574.51 110.146H1574.31V145.503L1552.89 145.49L1551.03 145.523C1542.89 145.634 1536.28 152.319 1536.28 160.437C1536.28 168.547 1542.89 175.239 1551.03 175.344L1553.39 175.377L1574.31 175.364V271.67L1574.34 273.539C1574.45 281.669 1581.14 288.283 1589.25 288.283C1597.37 288.283 1604.05 281.669 1604.16 273.539L1604.2 271.173V175.35L1627.02 175.337L1627.65 175.35L1627.8 175.37C1635.79 175.096 1642.22 168.501 1642.22 160.437C1642.22 152.333 1635.74 145.719 1627.69 145.496Z" fill="#FFFFFF"/>
<path d="M199.774 187.347C178.861 187.347 161.842 204.359 161.836 225.273V225.299C161.842 246.212 178.861 263.23 199.774 263.23C220.694 263.23 237.713 246.206 237.713 225.286C237.713 204.366 220.694 187.347 199.774 187.347Z" fill="#FFFFFF"/>
<path d="M199.774 319.983C183.841 319.983 168.855 316.01 155.679 309.056C154.483 310.579 153.15 311.951 151.673 313.199C151.412 313.422 151.157 313.637 150.889 313.846C149.935 314.598 148.941 315.291 147.895 315.912C147.092 316.402 146.262 316.853 145.412 317.258C144.856 317.519 144.301 317.768 143.726 317.996C142.386 318.526 140.994 318.964 139.563 319.29C139.223 319.362 138.89 319.408 138.55 319.467C136.896 319.774 135.204 319.983 133.459 319.983C131.511 319.983 129.603 319.787 127.766 319.408C126.91 319.232 126.119 318.898 125.289 318.643C124.348 318.362 123.374 318.153 122.479 317.774C121.263 317.264 120.146 316.578 119.022 315.912C118.59 315.657 118.113 315.474 117.695 315.193C116.316 314.271 115.048 313.199 113.859 312.056C113.754 311.958 113.63 311.886 113.532 311.788C108.408 306.729 105.225 299.736 105.121 291.992L105.082 291.985V291.162V281.162H138.792V273.045H105.082V258.491H121.368V250.374H105.082V239.015H121.368V230.898H105.082V219.533H121.368V211.416H105.082V196.862H138.792V188.745H105.082V174.151H121.368V166.034H105.082V159.42V154.669H121.368V146.552H105.082V135.186H121.368V127.069H105.082V112.561H138.792V104.444H105.082V88.2553H105.121C105.33 72.7662 117.917 60.2573 133.459 60.2573C149 60.2573 161.587 72.7662 161.796 88.2553H161.836V138.591C173.456 133.487 186.265 130.599 199.774 130.599C252.071 130.599 294.466 172.994 294.466 225.291C294.466 277.588 252.071 319.983 199.774 319.983ZM195.166 0.000396729C87.6254 0.000396729 0.442383 87.1834 0.442383 194.724C0.442383 302.272 87.6254 389.455 195.166 389.455C302.714 389.455 389.897 302.272 389.897 194.724C389.897 87.1834 302.714 0.000396729 195.166 0.000396729Z" fill="#FFFFFF"/>
</g>
<defs>
<clipPath id="clip0_16_2">
<rect width="2110" height="390" fill="white"/>
</clipPath>
</defs>
</svg>
